<svg width="20" height="22" viewBox="0 0 20 22" fill="none" xmlns="http://www.w3.org/2000/svg">
<path d="M15.3668 3.79C14.5695 2.87945 14.1301 1.7103 14.1302 0.5H10.5252V14.9667C10.498 15.7497 10.1676 16.4916 9.60387 17.0357C9.04012 17.5799 8.28705 17.8838 7.50352 17.8833C5.84685 17.8833 4.47018 16.53 4.47018 14.85C4.47018 12.8433 6.40685 11.3383 8.40185 11.9567V8.27C4.37685 7.73333 0.853516 10.86 0.853516 14.85C0.853516 18.735 4.07352 21.5 7.49185 21.5C11.1552 21.5 14.1302 18.525 14.1302 14.85V7.51167C15.592 8.56149 17.3471 9.12475 19.1468 9.12167V5.51667C19.1468 5.51667 16.9535 5.62167 15.3668 3.79Z" fill="white" fill-opacity="0.5"/>
</svg>
