<svg width="24" height="24" viewBox="0 0 24 24" fill="none" xmlns="http://www.w3.org/2000/svg">
<path d="M7.09968 0.333313H16.8997C20.633 0.333313 23.6663 3.36665 23.6663 7.09998V16.9C23.6663 18.6946 22.9534 20.4157 21.6844 21.6847C20.4154 22.9537 18.6943 23.6666 16.8997 23.6666H7.09968C3.36634 23.6666 0.333008 20.6333 0.333008 16.9V7.09998C0.333008 5.30535 1.04592 3.58422 2.31492 2.31522C3.58391 1.04623 5.30504 0.333313 7.09968 0.333313ZM6.86634 2.66665C5.75243 2.66665 4.68415 3.10915 3.89649 3.8968C3.10884 4.68445 2.66634 5.75274 2.66634 6.86665V17.1333C2.66634 19.455 4.54467 21.3333 6.86634 21.3333H17.133C18.2469 21.3333 19.3152 20.8908 20.1029 20.1032C20.8905 19.3155 21.333 18.2472 21.333 17.1333V6.86665C21.333 4.54498 19.4547 2.66665 17.133 2.66665H6.86634ZM18.1247 4.41665C18.5114 4.41665 18.8824 4.57029 19.1559 4.84378C19.4294 5.11727 19.583 5.48821 19.583 5.87498C19.583 6.26175 19.4294 6.63269 19.1559 6.90618C18.8824 7.17967 18.5114 7.33331 18.1247 7.33331C17.7379 7.33331 17.367 7.17967 17.0935 6.90618C16.82 6.63269 16.6663 6.26175 16.6663 5.87498C16.6663 5.48821 16.82 5.11727 17.0935 4.84378C17.367 4.57029 17.7379 4.41665 18.1247 4.41665ZM11.9997 6.16665C13.5468 6.16665 15.0305 6.78123 16.1245 7.87519C17.2184 8.96915 17.833 10.4529 17.833 12C17.833 13.5471 17.2184 15.0308 16.1245 16.1248C15.0305 17.2187 13.5468 17.8333 11.9997 17.8333C10.4526 17.8333 8.96885 17.2187 7.87489 16.1248C6.78092 15.0308 6.16634 13.5471 6.16634 12C6.16634 10.4529 6.78092 8.96915 7.87489 7.87519C8.96885 6.78123 10.4526 6.16665 11.9997 6.16665ZM11.9997 8.49998C11.0714 8.49998 10.1812 8.86873 9.5248 9.52511C8.86842 10.1815 8.49967 11.0717 8.49967 12C8.49967 12.9282 8.86842 13.8185 9.5248 14.4749C10.1812 15.1312 11.0714 15.5 11.9997 15.5C12.9279 15.5 13.8182 15.1312 14.4745 14.4749C15.1309 13.8185 15.4997 12.9282 15.4997 12C15.4997 11.0717 15.1309 10.1815 14.4745 9.52511C13.8182 8.86873 12.9279 8.49998 11.9997 8.49998Z" fill="white" fill-opacity="0.5"/>
</svg>
