<svg width="32" height="30" viewBox="0 0 32 30" fill="none" xmlns="http://www.w3.org/2000/svg">
<path d="M15.2508 9H28.2948C29.2323 9 29.7003 9 30.0438 9.15C31.5618 9.8205 30.8838 11.505 30.6288 12.717C30.6051 12.8265 30.5561 12.9289 30.4858 13.0162C30.4155 13.1034 30.3258 13.173 30.2238 13.2195C29.7377 13.449 29.3223 13.8049 29.0208 14.25M9.25083 9H3.70683C2.76933 9 2.30133 9 1.95783 9.15C0.439827 9.8205 1.11783 11.505 1.37283 12.717C1.39765 12.8261 1.44704 12.928 1.51722 13.0151C1.58741 13.1022 1.67654 13.1721 1.77783 13.2195C2.19845 13.4132 2.56646 13.7051 2.85095 14.0705C3.13545 14.4359 3.32813 14.8642 3.41283 15.3195L4.30233 20.382C4.69233 22.6095 4.82733 25.791 6.77733 27.36C8.20983 28.5 10.2723 28.5 14.3988 28.5H18.2508M7.75083 13.5L13.0008 1.5M20.5008 1.5L24.2508 9" stroke="white" stroke-width="1.5" stroke-linecap="round" stroke-linejoin="round"/>
</svg>
