<svg width="24" height="24" viewBox="0 0 24 24" fill="none" xmlns="http://www.w3.org/2000/svg">
<path d="M2.31122 11.243C2.27429 11.0956 2.27145 10.9416 2.30293 10.7929C2.33441 10.6442 2.39937 10.5046 2.49289 10.3848C2.58641 10.265 2.70601 10.168 2.84261 10.1013C2.97921 10.0347 3.12922 10 3.28122 10H20.7212C20.8731 10 21.023 10.0347 21.1595 10.1013C21.296 10.1679 21.4156 10.2648 21.5091 10.3845C21.6026 10.5042 21.6676 10.6436 21.6991 10.7922C21.7307 10.9408 21.728 11.0946 21.6912 11.242L19.8802 18.485C19.7721 18.9177 19.5224 19.3018 19.1709 19.5763C18.8194 19.8508 18.3862 19.9999 17.9402 20H6.06222C5.61623 19.9999 5.18306 19.8508 4.83155 19.5763C4.48005 19.3018 4.23038 18.9177 4.12222 18.485L2.31122 11.243Z" stroke="white" stroke-width="2" stroke-linejoin="round"/>
<path d="M9 14V16M15 14V16M6 10L10 4M18 10L14 4" stroke="white" stroke-width="2" stroke-linecap="round"/>
</svg>
